<?xml version="1.0"?><svg xmlns="http://www.w3.org/2000/svg"  viewBox="0 0 30 30" width="30px" height="30px">    <path d="M 4 5 C 2.895 5 2 5.895 2 7 L 2 23 C 2 24.105 2.895 25 4 25 L 26 25 C 27.105 25 28 24.105 28 23 L 28 7 C 28 5.895 27.105 5 26 5 L 4 5 z M 15.505859 10.607422 C 15.955859 10.607422 16.318359 10.968781 16.318359 11.425781 C 16.318359 11.875781 15.955859 12.244141 15.505859 12.244141 C 15.048859 12.244141 14.685547 11.875781 14.685547 11.425781 C 14.685547 10.969781 15.048859 10.607422 15.505859 10.607422 z M 9.8535156 11.330078 L 9.8535156 12.726562 L 10.84375 12.726562 L 10.65625 13.878906 L 9.8535156 13.878906 L 9.8535156 15.910156 C 9.8535156 16.267156 9.9850156 16.423828 10.291016 16.423828 C 10.435016 16.423828 10.646234 16.378516 10.740234 16.353516 L 10.740234 17.572266 C 10.571234 17.616266 10.327734 17.685547 9.9277344 17.685547 C 9.4087344 17.685547 9.0402031 17.584906 8.7832031 17.378906 C 8.4762031 17.128906 8.3261719 16.721766 8.3261719 16.134766 L 8.3261719 13.876953 L 7.6855469 13.876953 L 7.8613281 12.802734 L 8.328125 12.726562 L 8.5214844 11.548828 L 9.8535156 11.330078 z M 5.8320312 12.632812 C 6.5760312 12.632812 7.1149531 12.839844 7.3769531 12.964844 L 7.1894531 14.121094 C 6.8584531 13.959094 6.37625 13.777344 5.90625 13.777344 C 5.64925 13.777344 5.5078125 13.877734 5.5078125 14.052734 C 5.5078125 14.259734 5.7578437 14.391547 6.2148438 14.560547 C 7.0718438 14.866547 7.6015625 15.228656 7.6015625 16.097656 C 7.6015625 16.621656 7.4203125 17.028688 7.0703125 17.304688 C 6.7583125 17.555688 6.2942813 17.685547 5.7382812 17.685547 C 5.0382812 17.685547 4.363 17.473578 4 17.267578 L 4.1875 16.097656 C 4.6125 16.347656 5.26325 16.542969 5.65625 16.542969 C 5.97525 16.542969 6.1503906 16.423797 6.1503906 16.216797 C 6.1503906 16.003797 5.9697813 15.867828 5.4257812 15.673828 C 4.5817812 15.367828 4.0625 15.003344 4.0625 14.152344 C 4.0625 13.683344 4.2316406 13.296344 4.5566406 13.027344 C 4.8696406 12.771344 5.3060312 12.632812 5.8320312 12.632812 z M 19.664062 12.634766 C 20.152062 12.634766 20.532594 12.808062 20.808594 13.164062 C 21.121594 13.564063 21.278297 14.190625 21.279297 15.015625 C 21.279297 15.945625 21.065484 16.652375 20.646484 17.109375 C 20.208484 17.584375 19.645812 17.685547 19.257812 17.685547 C 19.038812 17.685547 18.794641 17.649219 18.556641 17.574219 L 18.556641 19.136719 L 17.005859 19.394531 L 17.005859 12.728516 L 18.369141 12.728516 L 18.451172 13.216797 C 18.820172 12.822797 19.214063 12.634766 19.664062 12.634766 z M 24.011719 12.634766 C 24.655719 12.634766 25.163 12.858875 25.5 13.296875 C 25.831 13.727875 26 14.341188 26 15.117188 C 26 15.228188 25.986469 15.579297 25.980469 15.654297 L 23.410156 15.654297 C 23.441156 15.973297 23.535266 16.197938 23.697266 16.335938 C 23.847266 16.466938 24.054469 16.529297 24.355469 16.529297 C 24.855469 16.529297 25.299641 16.417937 25.681641 16.210938 L 25.849609 17.273438 C 25.461609 17.529438 24.8495 17.6875 24.1875 17.6875 C 23.4685 17.6875 22.910438 17.498047 22.523438 17.123047 C 22.091438 16.704047 21.873047 16.049828 21.873047 15.173828 C 21.873047 13.609828 22.691719 12.634766 24.011719 12.634766 z M 13.824219 12.658203 C 13.918219 12.658203 14.012141 12.671312 14.119141 12.695312 L 14.119141 14.128906 L 14.117188 14.128906 C 14.011188 14.109906 13.92475 14.109375 13.84375 14.109375 C 13.46875 14.109375 13.191047 14.195594 12.998047 14.433594 L 12.998047 17.591797 L 11.447266 17.591797 L 11.447266 12.726562 L 12.804688 12.726562 L 12.898438 13.302734 C 13.035438 12.889734 13.386219 12.658203 13.824219 12.658203 z M 14.722656 12.726562 L 16.279297 12.726562 L 16.279297 17.591797 L 14.722656 17.591797 L 14.722656 12.726562 z M 23.986328 13.683594 C 23.630328 13.683594 23.442437 14.009125 23.398438 14.703125 L 24.542969 14.703125 C 24.518969 14.015125 24.337328 13.683594 23.986328 13.683594 z M 19.144531 13.814453 C 19.056531 13.814453 18.819641 13.846094 18.556641 14.121094 L 18.556641 16.435547 C 18.681641 16.497547 18.820562 16.529297 18.976562 16.529297 C 19.201563 16.529297 19.394531 16.403016 19.519531 16.166016 C 19.663531 15.916016 19.733422 15.547266 19.732422 15.072266 C 19.732422 14.241266 19.537531 13.814453 19.144531 13.814453 z"/></svg>